<svg width="150" height="120" viewBox="0 0 150 120" fill="none" xmlns="http://www.w3.org/2000/svg">
<path d="M122.727 0L88.6364 29.2683V93.6585L122.727 67.3171V0ZM0 29.2683V115.024C0 116.488 1.70455 117.951 3.40909 117.951C4.09091 117.951 4.43182 117.659 5.11364 117.659C14.3182 113.854 27.6136 111.22 37.5 111.22C50.7955 111.22 65.1136 113.561 75 120V29.2683C65.1136 22.8293 50.7955 20.4878 37.5 20.4878C24.2045 20.4878 9.88636 22.8293 0 29.2683ZM150 108.293V29.2683C145.909 26.6341 141.477 24.878 136.364 23.4146V102.439C128.864 100.39 120.682 99.5122 112.5 99.5122C100.909 99.5122 84.2045 103.317 75 108.293V120C84.2045 115.024 100.909 111.22 112.5 111.22C123.75 111.22 135.341 112.976 144.886 117.366C145.568 117.659 145.909 117.659 146.591 117.659C148.295 117.659 150 116.195 150 114.732V108.293Z" fill="#000E8B"/>
</svg>
