<svg width="57" height="50" viewBox="0 0 57 50" fill="none" xmlns="http://www.w3.org/2000/svg">
<path d="M50.2732 5H47.1311V0H40.847V5H15.7104V0H9.42623V5H6.28415C2.79645 5 0.0314207 7.25 0.0314207 10L0 45C0 47.75 2.79645 50 6.28415 50H50.2732C53.7295 50 56.5574 47.75 56.5574 45V10C56.5574 7.25 53.7295 5 50.2732 5ZM50.2732 45H6.28415V20H50.2732V45ZM18.8525 30H12.5683V25H18.8525V30ZM31.4208 30H25.1366V25H31.4208V30ZM43.9891 30H37.7049V25H43.9891V30ZM18.8525 40H12.5683V35H18.8525V40ZM31.4208 40H25.1366V35H31.4208V40ZM43.9891 40H37.7049V35H43.9891V40Z" fill="#0500FF"/>
</svg>
