<svg width="150" height="100" viewBox="0 0 150 100" fill="none" xmlns="http://www.w3.org/2000/svg">
<path d="M149.795 79.2143L141.285 24.5C139.099 10.4286 125.904 0 110.368 0H39.6325C24.0957 0 10.9012 10.4286 8.71514 24.5L0.205072 79.2143C-1.51256 90.2143 7.77826 100 19.8797 100C25.1888 100 30.1855 98.0714 33.9331 94.6429L51.5778 78.5714H98.4222L115.989 94.6429C119.736 98.0714 124.811 100 130.042 100C142.222 100 151.513 90.2143 149.795 79.2143ZM67.1926 42.8571H51.5778V57.1429H43.7704V42.8571H28.1556V35.7143H43.7704V21.4286H51.5778V35.7143H67.1926V42.8571ZM98.4222 35.7143C94.1282 35.7143 90.6148 32.5 90.6148 28.5714C90.6148 24.6429 94.1282 21.4286 98.4222 21.4286C102.716 21.4286 106.23 24.6429 106.23 28.5714C106.23 32.5 102.716 35.7143 98.4222 35.7143ZM114.037 57.1429C109.743 57.1429 106.23 53.9286 106.23 50C106.23 46.0714 109.743 42.8571 114.037 42.8571C118.331 42.8571 121.844 46.0714 121.844 50C121.844 53.9286 118.331 57.1429 114.037 57.1429Z" fill="#000E8B"/>
</svg>
