<svg width="57" height="50" viewBox="0 0 57 50" fill="none" xmlns="http://www.w3.org/2000/svg">
<path d="M28.2787 28.125C32.1199 28.125 35.5133 29.75 38.2705 31.875C40.8156 33.875 42.418 38.375 42.418 43.25V50H14.1393V43.2917C14.1393 38.375 15.7418 33.875 18.2869 31.9167C21.0441 29.75 24.4375 28.125 28.2787 28.125ZM9.42623 29.1667C12.0184 29.1667 14.1393 25.4167 14.1393 20.8333C14.1393 16.25 12.0184 12.5 9.42623 12.5C6.83402 12.5 4.71311 16.25 4.71311 20.8333C4.71311 25.4167 6.83402 29.1667 9.42623 29.1667ZM12.0891 33.75C11.2172 33.5 10.3453 33.3333 9.42623 33.3333C7.09324 33.3333 4.87807 34.2083 2.875 35.75C1.13115 37.0833 0 40.0833 0 43.4583V50H10.6045V43.2917C10.6045 39.8333 11.1465 36.5833 12.0891 33.75ZM47.1311 29.1667C49.7234 29.1667 51.8443 25.4167 51.8443 20.8333C51.8443 16.25 49.7234 12.5 47.1311 12.5C44.5389 12.5 42.418 16.25 42.418 20.8333C42.418 25.4167 44.5389 29.1667 47.1311 29.1667ZM56.5574 43.4583C56.5574 40.0833 55.4262 37.0833 53.6824 35.75C51.6793 34.2083 49.4641 33.3333 47.1311 33.3333C46.2121 33.3333 45.3402 33.5 44.4682 33.75C45.4109 36.5833 45.9529 39.8333 45.9529 43.2917V50H56.5574V43.4583ZM28.2787 0C32.1906 0 35.3484 5.58333 35.3484 12.5C35.3484 19.4167 32.1906 25 28.2787 25C24.3668 25 21.209 19.4167 21.209 12.5C21.209 5.58333 24.3668 0 28.2787 0Z" fill="#FFA800"/>
</svg>
