<svg width="57" height="50" viewBox="0 0 57 50" fill="none" xmlns="http://www.w3.org/2000/svg">
<path d="M53.865 34.3889C49.97 34.3889 46.2017 33.8333 42.6867 32.8333C41.5783 32.5 40.3433 32.75 39.4883 33.5L34.5167 38.9722C25.555 35.2222 17.1633 28.1389 12.6983 20L18.8733 15.3889C19.7283 14.6111 19.9817 13.5278 19.6333 12.5556C18.4617 9.47222 17.86 6.16667 17.86 2.75C17.86 1.25 16.435 0 14.725 0H3.76833C2.05833 0 0 0.666667 0 2.75C0 28.5556 24.4783 50 53.865 50C56.1133 50 57 48.25 57 46.7222V37.1389C57 35.6389 55.575 34.3889 53.865 34.3889Z" fill="#FA00FF"/>
</svg>
